<svg xmlns="http://www.w3.org/2000/svg" width="64" height="64" viewBox="0 0 192 192" role="img" aria-label="Money Control">
  <defs>
    <linearGradient id="bg" x1="24" y1="12" x2="168" y2="180"><stop stop-color="#0B1020"/><stop offset="1" stop-color="#050816"/></linearGradient>
    <radialGradient id="a" cx="30%" cy="22%" r="70%"><stop stop-color="#60A5FA" stop-opacity=".7"/><stop offset=".5" stop-color="#8B5CF6" stop-opacity=".32"/><stop offset="1" stop-color="#050816" stop-opacity="0"/></radialGradient>
    <linearGradient id="line" x1="68" y1="118" x2="136" y2="76"><stop stop-color="#34D399"/><stop offset="1" stop-color="#60A5FA"/></linearGradient>
  </defs>
  <rect width="192" height="192" rx="44" fill="url(#bg)"/>
  <rect width="192" height="192" rx="44" fill="url(#a)"/>
  <rect x="48" y="58" width="100" height="74" rx="22" fill="#fff" fill-opacity=".14" stroke="#fff" stroke-opacity=".24" stroke-width="1.4"/>
  <path d="M69 118l18-16 15 10 26-31" fill="none" stroke="url(#line)" stroke-width="7" stroke-linecap="round" stroke-linejoin="round"/>
  <path d="M126 82h14v14" fill="none" stroke="#60A5FA" stroke-width="6" stroke-linecap="round" stroke-linejoin="round"/>
  <circle cx="133" cy="128" r="18" fill="#0B1020" stroke="#fff" stroke-opacity=".22" stroke-width="1.4"/>
  <circle cx="133" cy="128" r="11" fill="#34D399" fill-opacity=".18" stroke="#34D399" stroke-width="3"/>
  <path d="M133 121l7 3v6c0 7-4 11-7 13-3-2-7-6-7-13v-6l7-3z" fill="#34D399" fill-opacity=".16" stroke="#D1FAE5" stroke-width="2.2" stroke-linejoin="round"/>
  <path d="M130 129l3 3 5-6" fill="none" stroke="#D1FAE5" stroke-width="2.2" stroke-linecap="round" stroke-linejoin="round"/>
</svg>
