<svg xmlns="http://www.w3.org/2000/svg" width="512" height="512" viewBox="0 0 512 512" role="img" aria-label="Money Control">
  <defs>
    <linearGradient id="bg" x1="64" y1="32" x2="448" y2="480"><stop stop-color="#0B1020"/><stop offset="1" stop-color="#050816"/></linearGradient>
    <radialGradient id="auroraA" cx="32%" cy="22%" r="72%"><stop stop-color="#60A5FA" stop-opacity=".72"/><stop offset=".42" stop-color="#8B5CF6" stop-opacity=".34"/><stop offset="1" stop-color="#050816" stop-opacity="0"/></radialGradient>
    <radialGradient id="auroraB" cx="72%" cy="72%" r="58%"><stop stop-color="#34D399" stop-opacity=".52"/><stop offset=".5" stop-color="#60A5FA" stop-opacity=".18"/><stop offset="1" stop-color="#050816" stop-opacity="0"/></radialGradient>
    <linearGradient id="glass" x1="150" y1="154" x2="384" y2="374"><stop stop-color="#FFFFFF" stop-opacity=".28"/><stop offset=".52" stop-color="#FFFFFF" stop-opacity=".12"/><stop offset="1" stop-color="#FFFFFF" stop-opacity=".07"/></linearGradient>
    <linearGradient id="line" x1="196" y1="318" x2="356" y2="218"><stop stop-color="#34D399"/><stop offset="1" stop-color="#60A5FA"/></linearGradient>
    <filter id="shadow" x="-30%" y="-30%" width="160%" height="160%"><feDropShadow dx="0" dy="38" stdDeviation="32" flood-color="#000814" flood-opacity=".58"/></filter>
    <filter id="glow" x="-50%" y="-50%" width="200%" height="200%"><feGaussianBlur stdDeviation="12" result="b"/><feMerge><feMergeNode in="b"/><feMergeNode in="SourceGraphic"/></feMerge></filter>
  </defs>
  <rect width="512" height="512" rx="118" fill="url(#bg)"/>
  <rect width="512" height="512" rx="118" fill="url(#auroraA)"/>
  <rect width="512" height="512" rx="118" fill="url(#auroraB)"/>
  <path d="M112 144c48-34 102-48 162-43 72 6 116 40 153 91" fill="none" stroke="#fff" stroke-opacity=".12" stroke-width="4"/>
  <g filter="url(#shadow)">
    <rect x="128" y="154" width="266" height="198" rx="58" fill="url(#glass)" stroke="#fff" stroke-opacity=".22" stroke-width="4"/>
    <rect x="160" y="200" width="112" height="22" rx="11" fill="#fff" fill-opacity=".24"/>
    <rect x="160" y="246" width="182" height="18" rx="9" fill="#fff" fill-opacity=".12"/>
    <path d="M184 314l48-42 40 27 70-83" fill="none" stroke="url(#line)" stroke-width="18" stroke-linecap="round" stroke-linejoin="round" filter="url(#glow)"/>
    <path d="M336 218h38v38" fill="none" stroke="#60A5FA" stroke-width="16" stroke-linecap="round" stroke-linejoin="round"/>
  </g>
  <g filter="url(#shadow)">
    <circle cx="354" cy="342" r="48" fill="#0B1020" stroke="#fff" stroke-opacity=".2" stroke-width="4"/>
    <circle cx="354" cy="342" r="29" fill="#34D399" fill-opacity=".18" stroke="#34D399" stroke-opacity=".86" stroke-width="8"/>
    <path d="M343 342h22" stroke="#D1FAE5" stroke-width="8" stroke-linecap="round"/>
  </g>
</svg>
