<svg xmlns="http://www.w3.org/2000/svg" width="192" height="192" viewBox="0 0 192 192" role="img" aria-label="Money Control">
  <defs>
    <linearGradient id="bg" x1="24" y1="12" x2="168" y2="180"><stop stop-color="#0B1020"/><stop offset="1" stop-color="#050816"/></linearGradient>
    <radialGradient id="auroraA" cx="32%" cy="22%" r="72%"><stop stop-color="#60A5FA" stop-opacity=".72"/><stop offset=".42" stop-color="#8B5CF6" stop-opacity=".34"/><stop offset="1" stop-color="#050816" stop-opacity="0"/></radialGradient>
    <radialGradient id="auroraB" cx="72%" cy="72%" r="58%"><stop stop-color="#34D399" stop-opacity=".52"/><stop offset=".5" stop-color="#60A5FA" stop-opacity=".18"/><stop offset="1" stop-color="#050816" stop-opacity="0"/></radialGradient>
    <linearGradient id="glass" x1="56" y1="58" x2="144" y2="140"><stop stop-color="#FFFFFF" stop-opacity=".28"/><stop offset=".52" stop-color="#FFFFFF" stop-opacity=".12"/><stop offset="1" stop-color="#FFFFFF" stop-opacity=".07"/></linearGradient>
    <linearGradient id="line" x1="74" y1="120" x2="134" y2="82"><stop stop-color="#34D399"/><stop offset="1" stop-color="#60A5FA"/></linearGradient>
    <filter id="shadow" x="-30%" y="-30%" width="160%" height="160%"><feDropShadow dx="0" dy="16" stdDeviation="14" flood-color="#000814" flood-opacity=".55"/></filter>
    <filter id="glow" x="-50%" y="-50%" width="200%" height="200%"><feGaussianBlur stdDeviation="5" result="b"/><feMerge><feMergeNode in="b"/><feMergeNode in="SourceGraphic"/></feMerge></filter>
  </defs>
  <rect width="192" height="192" rx="44" fill="url(#bg)"/>
  <rect width="192" height="192" rx="44" fill="url(#auroraA)"/>
  <rect width="192" height="192" rx="44" fill="url(#auroraB)"/>
  <path d="M42 54c18-13 38-18 61-16 27 2 43 15 57 34" fill="none" stroke="#fff" stroke-opacity=".12" stroke-width="1.4"/>
  <g filter="url(#shadow)">
    <rect x="48" y="58" width="100" height="74" rx="22" fill="url(#glass)" stroke="#fff" stroke-opacity=".22" stroke-width="1.4"/>
    <rect x="60" y="75" width="42" height="8" rx="4" fill="#fff" fill-opacity=".24"/>
    <rect x="60" y="92" width="68" height="7" rx="3.5" fill="#fff" fill-opacity=".12"/>
    <path d="M69 118l18-16 15 10 26-31" fill="none" stroke="url(#line)" stroke-width="7" stroke-linecap="round" stroke-linejoin="round" filter="url(#glow)"/>
    <path d="M126 82h14v14" fill="none" stroke="#60A5FA" stroke-width="6" stroke-linecap="round" stroke-linejoin="round"/>
  </g>
  <g filter="url(#shadow)">
    <circle cx="133" cy="128" r="18" fill="#0B1020" stroke="#fff" stroke-opacity=".2" stroke-width="1.4"/>
    <circle cx="133" cy="128" r="11" fill="#34D399" fill-opacity=".18" stroke="#34D399" stroke-opacity=".86" stroke-width="3"/>
    <path d="M133 121l7 3v6c0 7-4 11-7 13-3-2-7-6-7-13v-6l7-3z" fill="#34D399" fill-opacity=".16" stroke="#D1FAE5" stroke-width="2.2" stroke-linejoin="round"/>
    <path d="M130 129l3 3 5-6" fill="none" stroke="#D1FAE5" stroke-width="2.2" stroke-linecap="round" stroke-linejoin="round"/>
  </g>
</svg>
